{"title":"Dil Toh Baccha Hai Ji (2011) DvDrip [AVI] [rock$tar] ","uid":6296081,"size":454473820,"categoryP":"video","categoryS":"movies","magnet":"?xt=urn:btih:b38898d8ead9369269cd3eb23d8556bea37950a1&amp;dn=Dil+Toh+Baccha+Hai+Ji+%282011%29+DvDrip+%5BAVI%5D+%5Brock%24tar%5D+&amp;tr=udp%3A%2F%2Ftracker.openbittorrent.com%3A80&amp;tr=udp%3A%2F%2Fopen.demonii.com%3A1337&amp;tr=udp%3A%2F%2Ftracker.coppersurfer.tk%3A6969&amp;tr=udp%3A%2F%2Fexodus.desync.com%3A6969","seeders":0,"leechers":0,"uploader":"rohnakzz","files":3,"time":1301998874,"description":"General\nComplete name                    : Dil Toh Baccha Hai Ji.avi\nFormat                           : AVI\nFormat/Info                      : Audio Video Interleave\nFile size                        : 433 MiB\nDuration                         : 2h 17mn\nOverall bit rate                 : 440 Kbps\nWriting application              : AVI-Mux GUI 1.17.8.3, Feb 16 201019:42:50\n\nVideo\nID                               : 0\nFormat                           : MPEG-4 Visual\nFormat profile                   : Advanced Simple@L5\nFormat settings, BVOP            : 2\nFormat settings, QPel            : No\nFormat settings, GMC             : No warppoints\nFormat settings, Matrix          : Default (H.263)\nMuxing mode                      : Packed bitstream\nCodec ID                         : XVID\nCodec ID/Hint                    : XviD\nDuration                         : 2h 17mn\nBit rate                         : 238 Kbps\nWidth                            : 672 pixels\nHeight                           : 288 pixels\nDisplay aspect ratio             : 2.35:1\nFrame rate                       : 25.000 fps\nColor space                      : YUV\nChroma subsampling               : 4:2:0\nBit depth                        : 8 bits\nScan type                        : Progressive\nCompression mode                 : Lossy\nBits/(Pixel*Frame)               : 0.049\nStream size                      : 235 MiB (54%)\nWriting library                  : XviD 58\n\nAudio\nID                               : 1\nFormat                           : AC-3\nFormat/Info                      : Audio Coding 3\nMode extension                   : CM (complete main)\nCodec ID                         : 2000\nDuration                         : 2h 17mn\nBit rate mode                    : Constant\nBit rate                         : 192 Kbps\nChannel(s)                       : 6 channels\nChannel positions                : Front: L C R, Side: L R, LFE\nSampling rate                    : 48.0 KHz\nBit depth                        : 16 bits\nCompression mode                 : Lossy\nStream size                      : 189 MiB (44%)\nAlignment                        : Split accross interleaves\nInterleave, duration             : 40 ms (1.00 video frame)\nInterleave, preload duration     : 500 ms\n\n\nSCREEN SHOTS\n\n\n\n\n\n\n\n","torrent":{"xt":"urn:btih:b38898d8ead9369269cd3eb23d8556bea37950a1","amp;dn":"Dil+Toh+Baccha+Hai+Ji+%282011%29+DvDrip+%5BAVI%5D+%5Brock%24tar%5D+","amp;tr":["udp%3A%2F%2Ftracker.openbittorrent.com%3A80","udp%3A%2F%2Fopen.demonii.com%3A1337","udp%3A%2F%2Ftracker.coppersurfer.tk%3A6969","udp%3A%2F%2Fexodus.desync.com%3A6969"],"infoHash":"b38898d8ead9369269cd3eb23d8556bea37950a1","infoHashBuffer":{"type":"Buffer","data":[179,136,152,216,234,217,54,146,105,205,62,178,61,133,86,190,163,121,80,161]},"announce":[],"urlList":[]}}